<svg height="436pt" viewBox="-33 0 436 436.90667" width="436pt" xmlns="http://www.w3.org/2000/svg"><path d="m229.773438 195.585938c-13.925782 0-25.253907 11.328124-25.253907 25.253906 0 3.773437 3.054688 6.828125 6.828125 6.828125 3.773438 0 6.828125-3.054688 6.828125-6.828125 0-6.390625 5.207031-11.597656 11.597657-11.597656 3.773437 0 6.828124-3.054688 6.828124-6.828126 0-3.773437-3.054687-6.828124-6.828124-6.828124zm0 0"/><path d="m74.816406 209.242188c6.390625 0 11.597656 5.207031 11.597656 11.597656 0 3.773437 3.054688 6.828125 6.828126 6.828125 3.773437 0 6.824218-3.054688 6.824218-6.828125 0-13.925782-11.324218-25.253906-25.25-25.253906-3.773437 0-6.828125 3.054687-6.828125 6.828124 0 3.773438 3.054688 6.828126 6.828125 6.828126zm0 0"/><path d="m368.707031 261.460938c-1.28125-1.308594-3.039062-2.046876-4.871093-2.046876h-107.652344c28.519531-11.875 47.949218-29.882812 47.949218-54.574218 0-16.828125-2.277343-33.425782-6.765624-49.355469-.539063-1.910156-1.117188-3.792969-1.714844-5.667969v-142.988281c0-3.773437-3.050782-6.828125-6.824219-6.828125-34.085937 0-65.117187 19.5625-79.902344 50.089844-17.59375-7.695313-36.722656-11.890625-56.632812-11.890625-19.910157 0-39.039063 4.195312-56.636719 11.890625-14.785156-30.570313-45.644531-50.089844-79.894531-50.089844-3.773438 0-6.828125 3.054688-6.828125 6.828125v142.988281c-.59375 1.875-1.175782 3.757813-1.714844 5.667969-4.484375 15.929687-6.765625 32.527344-6.765625 49.355469 0 15.796875 7.925781 29.710937 23.171875 41.097656-.183594.527344-.328125 1.074219-.378906 1.65625-.441406 5.019531-.660156 10.144531-.660156 15.234375 0 95.984375 78.09375 174.078125 174.078124 174.078125 55.320313 0 107.867188-26.734375 140.574219-71.511719 21.148438-28.953125 32.699219-63.191406 33.421875-99.015625.035156-1.839844-.664062-3.605468-1.953125-4.917968zm-163.628906-2.046876h-3.449219c-1.332031 0-2.566406.394532-3.617187 1.054688-9.683594 1.332031-19.691407 2.230469-29.800781 2.6875 2.859374-3.9375 4.5625-8.757812 4.5625-13.984375 0-4.546875-1.300782-8.789063-3.515626-12.414063 23.3125-45.070312 66.710938-73.03125 113.550782-73.03125.886718 0 1.765625.035157 2.644531.085938 3.339844 13.300781 5.027344 27.078125 5.027344 41.027344 0 28.445312-37.917969 46.878906-85.402344 54.574218zm-45.957031-10.242187c0 5.648437-4.59375 10.242187-10.242188 10.242187-5.644531 0-10.238281-4.59375-10.238281-10.242187 0-5.644531 4.59375-10.238281 10.238281-10.238281 5.648438 0 10.242188 4.59375 10.242188 10.238281zm122.878906-235.203125v104c-14.738281-26.671875-35.859375-47.957031-60.800781-61.8125 11.5-23.828125 34.664062-39.808594 60.800781-42.1875zm-.652344 136.132812c-50.335937.558594-96.816406 29.949219-122.601562 77.335938-3.011719-1.371094-6.347656-2.15625-9.867188-2.15625-1.375 0-2.71875.140625-4.03125.367188-25.945312-46.246094-72.132812-74.992188-121.605468-75.546876 20.371093-59.144531 71.171874-98.25 129.050781-98.25 57.878906 0 108.683593 39.105469 129.054687 98.25zm-258.761718-136.140624c26.246093 2.367187 49.304687 18.3125 60.808593 42.195312-24.945312 13.851562-46.070312 35.140625-60.808593 61.8125zm-8.476563 190.878906c0-13.949219 1.683594-27.726563 5.023437-41.027344.882813-.050781 1.761719-.085938 2.648438-.085938 44.855469 0 86.980469 25.960938 110.828125 68-4.675781 4.363282-7.621094 10.558594-7.621094 17.445313 0 5.046875 1.582031 9.722656 4.261719 13.585937-60.34375-3.996093-115.140625-23.71875-115.140625-57.917968zm182.558594 218.414062c-88.460938 0-160.425781-71.96875-160.425781-160.425781 0-2.933594.105468-5.867187.265624-8.792969 4.171876 2.222656 8.683594 4.316406 13.546876 6.273438 27.085937 10.871094 63.398437 16.867187 102.238281 16.867187 17.835937 0 36-1.351562 53.277343-4.105469h49.761719c-.019531.15625-.023437.316407-.042969.472657-.128906 1.082031-.214843 2.160156-.300781 3.234375-.046875.558594-.109375 1.121094-.144531 1.675781-.09375 1.625-.148438 3.246094-.148438 4.855469 0 1.308594.03125 2.609375.089844 3.90625.019532.429687.054688.851562.082032 1.28125.050781.863281.101562 1.730468.179687 2.585937.046875.503907.109375 1.003907.164063 1.503907.082031.777343.167968 1.550781.269531 2.320312.074219.527344.15625 1.050781.238281 1.574219.113281.738281.230469 1.472656.363281 2.203125.097657.53125.199219 1.0625.308594 1.59375.144531.714844.292969 1.421875.453125 2.128906.121094.53125.246094 1.058594.375 1.582031.175781.703125.359375 1.40625.550781 2.101563.140625.515625.28125 1.027344.433594 1.535156.207031.707031.429687 1.40625.65625 2.105469.160156.492187.3125.980469.480469 1.464843.25.726563.515625 1.441407.78125 2.15625.167968.449219.328125.898438.503906 1.339844.316406.800782.648438 1.589844.988281 2.378906.148438.347657.285157.699219.441407 1.042969.5 1.128907 1.027343 2.25 1.574218 3.351563.03125.0625.066406.121094.097656.183594.519532 1.039062 1.058594 2.066406 1.621094 3.078124.195313.347657.398438.6875.597656 1.035157.410157.71875.828126 1.4375 1.261719 2.144531.242188.398438.5.789062.75 1.1875.40625.640625.8125 1.28125 1.238281 1.90625.273438.414062.558594.816406.84375 1.222656.417969.601563.84375 1.199219 1.277344 1.789063.296875.40625.601563.804687.910156 1.207031.4375.578125.886719 1.148438 1.339844 1.714844.316406.390625.636719.78125.957032 1.164062.472656.566406.949218 1.121094 1.433593 1.667969.324219.371094.648438.738281.980469 1.101563.507812.558593 1.03125 1.105468 1.554688 1.652343.320312.335938.644531.675781.96875 1.003907.570312.574218 1.152343 1.132812 1.738281 1.6875.300781.285156.59375.578124.898437.859374.699219.644532 1.414063 1.273438 2.136719 1.894532.203125.175781.402344.359375.609375.53125 1.886719 1.597656 3.847656 3.117187 5.875 4.546875.253906.179687.515625.351562.769531.527343.757813.523438 1.523438 1.039063 2.296875 1.539063.335938.214844.675782.417969 1.015625.628906.714844.441407 1.429688.882813 2.15625 1.304688.375.21875.753907.429687 1.128907.640625.710937.398437 1.421874.789062 2.140624 1.167968.394532.207032.792969.40625 1.1875.605469.726563.367188 1.457032.726563 2.191407 1.070313.398437.1875.796875.371094 1.199219.550781.757812.34375 1.523437.671875 2.292968.992187.390625.160157.777344.324219 1.171875.480469.8125.324219 1.636719.632813 2.464844.933594.359375.128906.710937.261719 1.070313.386719.921874.320312 1.851562.617187 2.789062.910156.273438.082031.542969.175781.816406.257812 1.199219.355469 2.410156.691407 3.632813 1 .015625 0 .027343.003907.039062.007813.082031.019531.164063.046875.246094.066406-30.339844 35.96875-75.40625 57.140625-122.660156 57.140625zm131.882812-69.199218c-.292969-.046876-.582031-.105469-.875-.15625-.757812-.128907-1.511719-.257813-2.261719-.414063-.28125-.058594-.558593-.128906-.839843-.1875-.792969-.175781-1.589844-.347656-2.375-.546875-.15625-.042969-.3125-.089844-.472657-.128906-3.800781-.992188-7.472656-2.285156-10.988281-3.851563-.207031-.09375-.414062-.175781-.621093-.269531-.648438-.292969-1.285157-.613281-1.921876-.925781-.320312-.160157-.648437-.308594-.96875-.472657-.578124-.296874-1.148437-.613281-1.71875-.925781-.363281-.199219-.730468-.390625-1.09375-.597656-.535156-.304687-1.058593-.625-1.585937-.945313-.382813-.230468-.769531-.457031-1.144531-.695312-.503906-.316406-.996094-.648438-1.492188-.980469-.386718-.257812-.777344-.511719-1.160156-.777343-.472656-.328126-.9375-.671876-1.402344-1.011719-.390625-.285157-.777344-.566407-1.160156-.859375-.449219-.34375-.890625-.699219-1.332031-1.050782-.378907-.308593-.765625-.609374-1.140625-.925781-.429688-.355469-.847656-.726562-1.265625-1.09375-.371094-.328125-.746094-.65625-1.113281-.988281-.40625-.371094-.800782-.75-1.199219-1.128906-.363281-.351563-.726563-.699219-1.085938-1.054688-.382812-.386718-.757812-.777344-1.132812-1.167968-.355469-.371094-.707031-.738282-1.050781-1.117188-.363282-.394531-.71875-.800781-1.074219-1.203125-.339844-.386719-.675781-.78125-1.011719-1.175781-.339844-.40625-.675781-.820313-1.003906-1.234375-.328125-.40625-.652344-.816407-.96875-1.230469-.320313-.417969-.636719-.84375-.949219-1.269531-.308594-.425781-.617187-.851563-.917969-1.285157-.300781-.433593-.59375-.867187-.882812-1.300781-.296875-.445312-.585938-.890625-.871094-1.34375-.277344-.441406-.554688-.878906-.820312-1.328125-.28125-.460937-.550782-.925781-.820313-1.394531-.253906-.449219-.511719-.894531-.757813-1.351563-.261718-.476562-.511718-.957031-.761718-1.441406-.234375-.457031-.46875-.917968-.695313-1.382812-.242187-.492188-.472656-.992188-.699219-1.488282-.214843-.464843-.429687-.929687-.632812-1.402343-.222656-.507813-.433594-1.023438-.640625-1.539063-.195313-.472656-.386719-.945312-.570313-1.421875-.199218-.523437-.386718-1.058593-.574218-1.589843-.171875-.476563-.34375-.953126-.503906-1.433594-.179688-.542969-.34375-1.09375-.511719-1.640625-.148438-.480469-.296875-.960938-.433594-1.445313-.160156-.5625-.300781-1.128906-.445313-1.695312-.121093-.484375-.25-.960938-.363281-1.445313-.136719-.582031-.253906-1.175781-.375-1.765625-.097656-.476562-.203125-.949218-.292969-1.429687-.113281-.609375-.207031-1.226563-.304687-1.847657-.070313-.464843-.15625-.925781-.21875-1.394531-.09375-.648437-.160156-1.304687-.230469-1.957031-.050781-.445312-.109375-.886719-.152344-1.335938-.066406-.722656-.105468-1.449218-.152343-2.175781-.023438-.386719-.058594-.769531-.078125-1.15625-.050782-1.117187-.078125-2.242187-.078125-3.371093 0-1.136719.039062-2.285157.097656-3.433594.011719-.273438.027344-.546875.042969-.824219.074218-1.140625.164062-2.285156.292968-3.4375.011719-.085937.023438-.175781.035157-.261719.085937-.757812.207031-1.519531.316406-2.28125h87.585937c-1.84375 29.136719-11.503906 56.929688-28.175781 80.988282zm0 0"/></svg>