<svg height="443pt" viewBox="0 -3 443.64737 443" width="443pt" xmlns="http://www.w3.org/2000/svg"><path d="m307.199219 160.75c0 84.832031-68.769531 153.601562-153.597657 153.601562-84.832031 0-153.601562-68.769531-153.601562-153.601562s68.769531-153.601562 153.601562-153.601562c84.828126 0 153.597657 68.769531 153.597657 153.601562zm0 0" fill="#d9be6f"/><path d="m334.507812 283.628906c0-5.867187.695313-11.566406 1.914063-17.066406h-89.699219l-107.746094-107.742188c-22.871093 28.605469-36.578124 64.855469-36.578124 104.328126 0 92.375 74.882812 167.253906 167.253906 167.253906 55.511718 0 104.652344-27.078125 135.058594-68.710938-39.453126-4.152344-70.203126-37.507812-70.203126-78.0625zm0 0" fill="#fc8c29"/><path d="m269.652344 437.230469c-95.984375 0-174.078125-78.09375-174.078125-174.082031 0-39.882813 13.167969-77.4375 38.066406-108.589844 1.214844-1.523438 3.015625-2.449219 4.953125-2.554688 1.953125-.101562 3.839844.613282 5.207031 1.988282l105.746094 105.746093h86.871094c2.074219 0 4.027343.9375 5.328125 2.550781 1.292968 1.613282 1.789062 3.734376 1.339844 5.753907-1.167969 5.238281-1.753907 10.480469-1.753907 15.585937 0 36.796875 27.554688 67.433594 64.09375 71.273438 2.429688.253906 4.535157 1.789062 5.527344 4.019531s.714844 4.820313-.726563 6.792969c-32.707031 44.78125-85.253906 71.515625-140.574218 71.515625zm-129.984375-268.066407c-19.941407 27.460938-30.441407 59.792969-30.441407 93.984376 0 88.460937 71.96875 160.429687 160.425782 160.429687 47.253906 0 92.320312-21.175781 122.660156-57.140625-37.566406-9.285156-64.632812-43.027344-64.632812-82.808594 0-3.378906.214843-6.796875.640624-10.238281h-81.597656c-1.8125 0-3.546875-.71875-4.828125-2zm0 0" fill="#4c241d"/><path d="m361.8125 150.511719h-81.917969v-61.441407c0-45.242187 36.675781-81.921874 81.917969-81.921874zm0 0" fill="#fc8c29"/><path d="m361.8125 157.335938h-81.917969c-3.773437 0-6.828125-3.050782-6.828125-6.824219v-61.441407c0-48.933593 39.8125-88.746093 88.746094-88.746093 3.773438 0 6.828125 3.054687 6.828125 6.824219v143.363281c0 3.773437-3.054687 6.824219-6.828125 6.824219zm-75.09375-13.652344h68.269531v-129.398438c-38.222656 3.457032-68.269531 35.679688-68.269531 74.785156zm0 0" fill="#4c241d"/><path d="m88.746094 150.511719h81.921875v-61.441407c0-45.242187-36.675781-81.921874-81.921875-81.921874zm0 0" fill="#fc8c29"/><path d="m170.667969 157.335938h-81.921875c-3.773438 0-6.824219-3.050782-6.824219-6.824219v-143.363281c0-3.769532 3.050781-6.824219 6.824219-6.824219 48.933594 0 88.746094 39.8125 88.746094 88.746093v61.441407c0 3.773437-3.050782 6.824219-6.824219 6.824219zm-75.09375-13.652344h68.265625v-54.613282c0-39.105468-30.046875-71.328124-68.265625-74.785156zm0 0" fill="#4c241d"/><path d="m225.28125 260.714844c18.328125-60.125 69.777344-103.492188 130.511719-103.492188 2.699219 0 5.332031.277344 7.988281.445313-18.355469-65.070313-73.421875-112.316407-138.503906-112.316407-65.082032 0-120.148438 47.25-138.5 112.316407 2.65625-.171875 5.289062-.445313 7.984375-.445313 60.738281 0 112.1875 43.367188 130.519531 103.492188zm0 0" fill="#fc8c29"/><path d="m225.28125 267.542969c-3 0-5.652344-1.957031-6.527344-4.832031-17.992187-59.015626-67.820312-98.660157-123.984375-98.660157-1.773437 0-3.515625.132813-5.253906.265625l-2.308594.160156c-2.214843.117188-4.351562-.800781-5.738281-2.527343-1.386719-1.71875-1.859375-4.007813-1.261719-6.140625 19.792969-70.152344 78.09375-117.285156 145.074219-117.285156s125.277344 47.132812 145.070312 117.285156c.601563 2.132812.128907 4.421875-1.257812 6.140625-1.386719 1.726562-3.574219 2.640625-5.738281 2.527343l-2.308594-.160156c-1.742187-.132812-3.480469-.265625-5.253906-.265625-56.164063 0-105.992188 39.644531-123.984375 98.660157-.875 2.875-3.527344 4.832031-6.527344 4.832031zm-129.082031-117.136719c55.753906.597656 105.574219 36.144531 129.082031 90.523438 23.503906-54.378907 73.324219-89.925782 129.078125-90.523438-20.378906-59.140625-71.199219-98.230469-129.078125-98.230469-57.882812 0-108.699219 39.085938-129.082031 98.230469zm0 0" fill="#4c241d"/><path d="m363.78125 157.667969c-2.65625-.171875-5.289062-.445313-7.984375-.445313-60.738281 0-112.1875 43.367188-130.515625 103.492188-18.332031-60.125-69.78125-103.492188-130.511719-103.492188-2.699219 0-5.332031.277344-7.988281.445313-4.234375 15.003906-6.515625 30.957031-6.515625 47.5 0 87.339843 290.035156 87.339843 290.035156 0-.003906-16.542969-2.285156-32.496094-6.519531-47.5zm0 0" fill="#fff"/><path d="m225.28125 277.496094c-38.839844 0-75.15625-5.992188-102.242188-16.867188-32.445312-13.03125-49.597656-32.210937-49.597656-55.464844 0-16.828124 2.28125-33.429687 6.765625-49.355468.792969-2.785156 3.253907-4.78125 6.148438-4.957032l2.148437-.15625c2.074219-.152343 4.152344-.300781 6.265625-.300781 56.328125 0 106.804688 35.695313 130.515625 90.535157 23.707032-54.839844 74.183594-90.535157 130.511719-90.535157 2.113281 0 4.195313.148438 6.265625.300781l2.148438.15625c2.894531.175782 5.355468 2.171876 6.148437 4.957032 4.484375 15.925781 6.765625 32.527344 6.765625 49.355468-.003906 49.699219-78.710938 72.332032-151.84375 72.332032zm130.511719-113.445313c-56.164063 0-105.992188 39.644531-123.984375 98.660157-.113282.375-.261719.734374-.425782 1.082031 66.617188-1.160157 132.085938-21.246094 132.085938-58.628907 0-13.945312-1.6875-27.726562-5.027344-41.027343-.882812-.054688-1.761718-.085938-2.648437-.085938zm-263.671875.085938c-3.339844 13.300781-5.027344 27.078125-5.027344 41.027343 0 37.378907 65.46875 57.464844 132.089844 58.625-.167969-.34375-.316406-.707031-.429688-1.078124-17.992187-59.015626-67.816406-98.660157-123.984375-98.660157-.890625 0-1.769531.03125-2.648437.085938zm0 0" fill="#4c241d"/><path d="m284.335938 221.164062c0-10.175781 8.25-18.425781 18.421874-18.425781" fill="#fc8c29"/><path d="m284.335938 227.988281c-3.773438 0-6.828126-3.050781-6.828126-6.824219 0-13.925781 11.328126-25.253906 25.253907-25.253906 3.773437 0 6.824219 3.050782 6.824219 6.824219s-3.050782 6.828125-6.824219 6.828125c-6.394531 0-11.601563 5.207031-11.601563 11.601562 0 3.773438-3.050781 6.824219-6.824218 6.824219zm0 0" fill="#4c241d"/><path d="m166.226562 221.164062c0-10.175781-8.25-18.425781-18.425781-18.425781" fill="#fc8c29"/><path d="m166.226562 227.988281c-3.773437 0-6.828124-3.050781-6.828124-6.824219 0-6.394531-5.207032-11.601562-11.597657-11.601562-3.773437 0-6.828125-3.054688-6.828125-6.828125s3.054688-6.824219 6.828125-6.824219c13.925781 0 25.25 11.328125 25.25 25.253906 0 3.773438-3.050781 6.824219-6.824219 6.824219zm0 0" fill="#4c241d"/><path d="m238.933594 249.496094c0 9.425781-7.640625 17.066406-17.066406 17.066406-9.425782 0-17.066407-7.640625-17.066407-17.066406 0-9.425782 7.640625-17.066406 17.066407-17.066406 9.425781 0 17.066406 7.640624 17.066406 17.066406zm0 0" fill="#6b4f5b"/><path d="m221.867188 273.390625c-13.175782 0-23.894532-10.71875-23.894532-23.894531 0-13.171875 10.71875-23.890625 23.894532-23.890625 13.171874 0 23.894531 10.71875 23.894531 23.890625 0 13.175781-10.722657 23.894531-23.894531 23.894531zm0-34.132813c-5.648438 0-10.242188 4.59375-10.242188 10.238282 0 5.648437 4.59375 10.242187 10.242188 10.242187 5.648437 0 10.238281-4.59375 10.238281-10.242187 0-5.644532-4.589844-10.238282-10.238281-10.238282zm0 0" fill="#4c241d"/><path d="m336.421875 266.5625c-1.21875 5.5-1.914063 11.199219-1.914063 17.066406 0 40.554688 30.75 73.910156 70.203126 78.0625 19.5625-26.789062 31.394531-59.585937 32.109374-95.128906zm0 0" fill="#fff"/><path d="m404.714844 368.515625c-.234375 0-.472656-.011719-.714844-.039063-43.507812-4.574218-76.320312-41.046874-76.320312-84.847656 0-6.097656.699218-12.335937 2.074218-18.542968.691406-3.121094 3.464844-5.347657 6.664063-5.347657h100.402343c1.832032 0 3.59375.738281 4.871094 2.046875 1.289063 1.3125 1.988282 3.078125 1.953125 4.917969-.71875 35.820313-12.269531 70.0625-33.417969 99.015625-1.292968 1.773438-3.347656 2.796875-5.511718 2.796875zm-62.613282-95.125c-.515624 3.445313-.769531 6.871094-.769531 10.238281 0 35.472656 25.613281 65.230469 60.199219 70.753906 16.675781-24.058593 26.335938-51.851562 28.175781-80.992187zm0 0" fill="#4c241d"/></svg>